REM DIRINDEX 1\2,1\3,1\4,1\5\6,1\5\7,1\8
REM DIRNAME cjc115,folder01,folder02,folder03,folder04,folder05,folder06,folder07
TITLE ""
FILE "090 【090】Unit5 (1021 friction_1032 removal).mp3" MP3
  TRACK 01 AUDIO
    TITLE "0:"
    INDEX 01 00:00:00
  TRACK 02 AUDIO
    TITLE "2:cjc115_3504"
    INDEX 01 00:00:07
  TRACK 03 AUDIO
    TITLE "0:"
    INDEX 01 00:01:26
  TRACK 04 AUDIO
    TITLE "3:cjc115_3505"
    INDEX 01 00:01:36
  TRACK 05 AUDIO
    TITLE "0:"
    INDEX 01 00:02:45
  TRACK 06 AUDIO
    TITLE "4:cjc115_3506"
    INDEX 01 00:02:53
  TRACK 07 AUDIO
    TITLE "0:"
    INDEX 01 00:06:63
  TRACK 08 AUDIO
    TITLE "2:cjc115_3507"
    INDEX 01 00:07:68
  TRACK 09 AUDIO
    TITLE "0:"
    INDEX 01 00:09:12
  TRACK 10 AUDIO
    TITLE "3:cjc115_3508"
    INDEX 01 00:09:22
  TRACK 11 AUDIO
    TITLE "0:"
    INDEX 01 00:11:60
  TRACK 12 AUDIO
    TITLE "4:cjc115_3509"
    INDEX 01 00:11:70
  TRACK 13 AUDIO
    TITLE "0:"
    INDEX 01 00:16:44
  TRACK 14 AUDIO
    TITLE "2:cjc115_3510"
    INDEX 01 00:17:55
  TRACK 15 AUDIO
    TITLE "0:"
    INDEX 01 00:18:68
  TRACK 16 AUDIO
    TITLE "3:cjc115_3511"
    INDEX 01 00:19:03
  TRACK 17 AUDIO
    TITLE "0:"
    INDEX 01 00:21:33
  TRACK 18 AUDIO
    TITLE "4:cjc115_3512"
    INDEX 01 00:21:41
  TRACK 19 AUDIO
    TITLE "0:"
    INDEX 01 00:27:02
  TRACK 20 AUDIO
    TITLE "2:cjc115_3513"
    INDEX 01 00:28:12
  TRACK 21 AUDIO
    TITLE "0:"
    INDEX 01 00:29:40
  TRACK 22 AUDIO
    TITLE "3:cjc115_3514"
    INDEX 01 00:29:48
  TRACK 23 AUDIO
    TITLE "0:"
    INDEX 01 00:32:54
  TRACK 24 AUDIO
    TITLE "4:cjc115_3515"
    INDEX 01 00:32:62
  TRACK 25 AUDIO
    TITLE "0:"
    INDEX 01 00:36:50
  TRACK 26 AUDIO
    TITLE "2:cjc115_3516"
    INDEX 01 00:37:59
  TRACK 27 AUDIO
    TITLE "0:"
    INDEX 01 00:39:13
  TRACK 28 AUDIO
    TITLE "3:cjc115_3517"
    INDEX 01 00:39:23
  TRACK 29 AUDIO
    TITLE "0:"
    INDEX 01 00:41:30
  TRACK 30 AUDIO
    TITLE "4:cjc115_3518"
    INDEX 01 00:41:40
  TRACK 31 AUDIO
    TITLE "0:"
    INDEX 01 00:46:39
  TRACK 32 AUDIO
    TITLE "2:cjc115_3519"
    INDEX 01 00:47:46
  TRACK 33 AUDIO
    TITLE "0:"
    INDEX 01 00:48:53
  TRACK 34 AUDIO
    TITLE "3:cjc115_3520"
    INDEX 01 00:48:63
  TRACK 35 AUDIO
    TITLE "0:"
    INDEX 01 00:50:17
  TRACK 36 AUDIO
    TITLE "4:cjc115_3521"
    INDEX 01 00:50:23
  TRACK 37 AUDIO
    TITLE "0:"
    INDEX 01 00:54:54
  TRACK 38 AUDIO
    TITLE "2:cjc115_3522"
    INDEX 01 00:55:63
  TRACK 39 AUDIO
    TITLE "0:"
    INDEX 01 00:56:74
  TRACK 40 AUDIO
    TITLE "3:cjc115_3523"
    INDEX 01 00:57:11
  TRACK 41 AUDIO
    TITLE "0:"
    INDEX 01 00:58:48
  TRACK 42 AUDIO
    TITLE "4:cjc115_3524"
    INDEX 01 00:58:56
  TRACK 43 AUDIO
    TITLE "0:"
    INDEX 01 01:02:03
  TRACK 44 AUDIO
    TITLE "2:cjc115_3525"
    INDEX 01 01:03:12
  TRACK 45 AUDIO
    TITLE "0:"
    INDEX 01 01:04:19
  TRACK 46 AUDIO
    TITLE "3:cjc115_3526"
    INDEX 01 01:04:29
  TRACK 47 AUDIO
    TITLE "0:"
    INDEX 01 01:05:44
  TRACK 48 AUDIO
    TITLE "4:cjc115_3527"
    INDEX 01 01:05:54
  TRACK 49 AUDIO
    TITLE "0:"
    INDEX 01 01:09:10
  TRACK 50 AUDIO
    TITLE "2:cjc115_3528"
    INDEX 01 01:10:18
  TRACK 51 AUDIO
    TITLE "0:"
    INDEX 01 01:11:60
  TRACK 52 AUDIO
    TITLE "3:cjc115_3529"
    INDEX 01 01:11:70
  TRACK 53 AUDIO
    TITLE "0:"
    INDEX 01 01:13:08
  TRACK 54 AUDIO
    TITLE "4:cjc115_3530"
    INDEX 01 01:13:18
  TRACK 55 AUDIO
    TITLE "0:"
    INDEX 01 01:16:30
  TRACK 56 AUDIO
    TITLE "2:cjc115_3531"
    INDEX 01 01:17:41
  TRACK 57 AUDIO
    TITLE "0:"
    INDEX 01 01:18:51
  TRACK 58 AUDIO
    TITLE "3:cjc115_3532"
    INDEX 01 01:18:62
  TRACK 59 AUDIO
    TITLE "0:"
    INDEX 01 01:20:67
  TRACK 60 AUDIO
    TITLE "4:cjc115_3533"
    INDEX 01 01:21:00
  TRACK 61 AUDIO
    TITLE "0:"
    INDEX 01 01:24:08
  TRACK 62 AUDIO
    TITLE "2:cjc115_3534"
    INDEX 01 01:25:13
  TRACK 63 AUDIO
    TITLE "0:"
    INDEX 01 01:26:38
  TRACK 64 AUDIO
    TITLE "3:cjc115_3535"
    INDEX 01 01:26:40
  TRACK 65 AUDIO
    TITLE "0:"
    INDEX 01 01:28:35
  TRACK 66 AUDIO
    TITLE "4:cjc115_3536"
    INDEX 01 01:28:43
  TRACK 67 AUDIO
    TITLE "0:"
    INDEX 01 01:32:51
  TRACK 68 AUDIO
    TITLE "2:cjc115_3537"
    INDEX 01 01:33:66
  TRACK 69 AUDIO
    TITLE "0:"
    INDEX 01 01:35:06
  TRACK 70 AUDIO
    TITLE "3:cjc115_3538"
    INDEX 01 01:35:14
  TRACK 71 AUDIO
    TITLE "0:"
    INDEX 01 01:37:05
  TRACK 72 AUDIO
    TITLE "4:cjc115_3539"
    INDEX 01 01:37:11
  TRACK 73 AUDIO
    TITLE "0:"
    INDEX 01 01:40:11
